<?xml version="1.0" encoding="UTF-8" standalone="no"?>
<svg
   xmlns:dc="http://purl.org/dc/elements/1.1/"
   xmlns:cc="http://creativecommons.org/ns#"
   xmlns:rdf="http://www.w3.org/1999/02/22-rdf-syntax-ns#"
   xmlns:svg="http://www.w3.org/2000/svg"
   xmlns="http://www.w3.org/2000/svg"
   xmlns:sodipodi="http://sodipodi.sourceforge.net/DTD/sodipodi-0.dtd"
   xmlns:inkscape="http://www.inkscape.org/namespaces/inkscape"
   version="1.1"
   x="0px"
   y="0px"
   viewBox="0 0 64 80"
   enable-background="new 0 0 64 64"
   xml:space="preserve"
   id="svg2"
   inkscape:version="0.91 r13725"
   sodipodi:docname="generativedoom.svg"><metadata
     id="metadata16"><rdf:RDF><cc:Work
         rdf:about=""><dc:format>image/svg+xml</dc:format><dc:type
           rdf:resource="http://purl.org/dc/dcmitype/StillImage" /><dc:title></dc:title></cc:Work></rdf:RDF></metadata><defs
     id="defs14" /><sodipodi:namedview
     pagecolor="#ffffff"
     bordercolor="#666666"
     borderopacity="1"
     objecttolerance="10"
     gridtolerance="10"
     guidetolerance="10"
     inkscape:pageopacity="0"
     inkscape:pageshadow="2"
     inkscape:window-width="1920"
     inkscape:window-height="1121"
     id="namedview12"
     showgrid="false"
     inkscape:zoom="10.539063"
     inkscape:cx="28.844129"
     inkscape:cy="20.431555"
     inkscape:window-x="-9"
     inkscape:window-y="-9"
     inkscape:window-maximized="1"
     inkscape:current-layer="g4" /><g
     id="g4"><path
       d="m 36.152543,28.440678 c -1.821,0 -3.451,0.818 -4.552,2.102 L 27.583,28.183 C 27.849,27.506 28,26.771 28,26 c 0,-3.309 -2.691,-6 -6,-6 -3.309,0 -6,2.691 -6,6 0,2.053 1.037,3.867 2.614,4.949 l -1.368034,3.825322 c -0.501,-0.136 -1.025,-0.215 -1.568,-0.215 -3.309,0 -5.9999999,2.691 -5.9999999,6 0,3.309 2.6909999,6 5.9999999,6 3.309,0 6,-2.691 6,-6 0,-2.053 -1.037,-3.867 -2.614,-4.949 L 20.432,31.785 C 20.932,31.921 21.457,32 22,32 c 1.821,0 3.451,-0.818 4.553,-2.102 l 4.017543,2.359678 c -0.267,0.677 -0.418,1.412 -0.418,2.183 0,3.309 2.691,6 6,6 3.309,0 6.00257,-2.691001 6,-6 0.05668,-3.60222 -2.93373,-5.991516 -6,-6 z M 15.677966,44.559322 c -2.206,0 -4,-1.794 -4,-4 0,-2.206 1.794,-4 4,-4 2.206,0 4,1.794 4,4 0,2.206 -1.794,4 -4,4 z M 22,30 c -2.206,0 -4,-1.794 -4,-4 0,-2.206 1.794,-4 4,-4 2.206,0 4,1.794 4,4 0,2.206 -1.794,4 -4,4 z m 14.152543,8.440678 c -2.206,0 -4,-1.794 -4,-4 0,-2.206 1.794,-4 4,-4 2.206,0 4,1.794 4,4 0,2.206 -1.794,4 -4,4 z"
       id="path6"
       inkscape:connector-curvature="0"
       sodipodi:nodetypes="cccsssccssssccsccssccsssssssssssssss"
       inkscape:export-filename="C:\Users\Guillaume\Downloads\path4199.png"
       inkscape:export-xdpi="259.82211"
       inkscape:export-ydpi="259.82211" /><path
       d="m 30.822669,42.111276 c -0.501,-0.136 -1.025,-0.215 -1.568,-0.215 -3.309,0 -6,2.691 -6,6 0,3.309 2.691,6 6,6 3.309,0 6,-2.691 6,-6 0,-2.053 -1.037,-3.867 -2.614,-4.949 0.870677,-2.487694 2.001838,-3.605419 2.001838,-3.605419 l -1.68025,-0.94477 c 0,0 -0.966598,1.633507 -2.139588,3.714189 z m -1.568,9.785 c -2.206,0 -4,-1.794 -4,-4 0,-2.206 1.794,-4 4,-4 2.206,0 4,1.794 4,4 0,2.206 -1.794,4 -4,4 z"
       id="path6-6"
       inkscape:connector-curvature="0"
       sodipodi:nodetypes="cssssccccsssss"
       inkscape:export-filename="C:\Users\Guillaume\Downloads\path4199.png"
       inkscape:export-xdpi="259.82211"
       inkscape:export-ydpi="259.82211" /><path
       style="fill:none;fill-rule:evenodd;stroke:#000000;stroke-width:1px;stroke-linecap:butt;stroke-linejoin:miter;stroke-opacity:1"
       d="M 10.687613,29.850432 4.2750452,51.143445 19.319916,51.390082 25.732484,36.756274 Z"
       id="path4193"
       inkscape:connector-curvature="0"
       sodipodi:nodetypes="ccccc"
       inkscape:export-filename="C:\Users\Guillaume\Downloads\path4199.png"
       inkscape:export-xdpi="259.82211"
       inkscape:export-ydpi="259.82211" /><path
       style="fill:none;fill-rule:evenodd;stroke:#000000;stroke-width:1px;stroke-linecap:butt;stroke-linejoin:miter;stroke-opacity:1"
       d="m 10.769825,29.768219 7.481329,-14.058322 13.811685,0.164425 -0.08221,8.221241 -6.330355,12.825136 z"
       id="path4195"
       inkscape:connector-curvature="0"
       sodipodi:nodetypes="cccccc"
       inkscape:export-filename="C:\Users\Guillaume\Downloads\path4199.png"
       inkscape:export-xdpi="259.82211"
       inkscape:export-ydpi="259.82211" /><path
       style="fill:none;fill-rule:evenodd;stroke:#000000;stroke-width:1px;stroke-linecap:butt;stroke-linejoin:miter;stroke-opacity:1"
       d="m 32.062839,24.013351 13.729472,7.399116 1.397611,3.041859 -5.343807,10.93425 -16.278056,-8.632302 z"
       id="path4197"
       inkscape:connector-curvature="0"
       sodipodi:nodetypes="cccccc"
       inkscape:export-filename="C:\Users\Guillaume\Downloads\path4199.png"
       inkscape:export-xdpi="259.82211"
       inkscape:export-ydpi="259.82211" /><path
       style="fill:none;fill-rule:evenodd;stroke:#000000;stroke-width:1px;stroke-linecap:butt;stroke-linejoin:miter;stroke-opacity:1"
       d="M 19.237703,51.225657 19.073279,57.309376 47.272134,57.144951 41.846115,45.470789 25.650271,36.838486 Z"
       id="path4199"
       inkscape:connector-curvature="0"
       inkscape:export-filename="C:\Users\Guillaume\Downloads\path4199.png"
       inkscape:export-xdpi="259.82211"
       inkscape:export-ydpi="259.82211" /><path
       d="m 34.588014,67.70959 c -0.501,-0.136 -1.025,-0.215 -1.568,-0.215 -3.309,0 -6,2.691 -6,6 0,3.309 2.691,6 6,6 3.309,0 6,-2.691 6,-6 0,-2.053 -1.037,-3.867 -2.614,-4.949 0.870677,-2.487694 2.001838,-3.605419 2.001838,-3.605419 l -1.68025,-0.94477 c 0,0 -0.966598,1.633507 -2.139588,3.714189 z m -1.568,9.785 c -2.206,0 -4,-1.794 -4,-4 0,-2.206 1.794,-4 4,-4 2.206,0 4,1.794 4,4 0,2.206 -1.794,4 -4,4 z"
       id="path6-6-8"
       inkscape:connector-curvature="0"
       sodipodi:nodetypes="cssssccccsssss"
       inkscape:export-filename="C:\Users\Guillaume\Downloads\path4199.png"
       inkscape:export-xdpi="568.39825"
       inkscape:export-ydpi="568.39825" /><path
       style="fill:none;fill-rule:evenodd;stroke:#000000;stroke-width:1px;stroke-linecap:butt;stroke-linejoin:miter;stroke-opacity:1"
       d="m 22.843622,77.489338 5.298972,-13.109471 13.811685,0.164425 -0.08221,8.22124 -3.863342,10.263239 z"
       id="path4195-9"
       inkscape:connector-curvature="0"
       sodipodi:nodetypes="cccccc"
       inkscape:export-filename="C:\Users\Guillaume\Downloads\path4199.png"
       inkscape:export-xdpi="568.39825"
       inkscape:export-ydpi="568.39825" /></g></svg>